<svg id="Setting" xmlns="http://www.w3.org/2000/svg" width="311.564" height="207.709" viewBox="0 0 311.564 207.709">
  <path id="패스_52" data-name="패스 52" d="M0,0H311.564V207.709H0Z" fill="rgba(0,0,0,0)"/>
  <path id="패스_53" data-name="패스 53" d="M354.131,82.646C346.654,58.239,282.02,26.737,230.958,65.9c-23.748,18.214-16.377,31.285-30.05,57.09-8.151,15.38-22.588,30.045-21.623,47.7.829,15.242,8.8,29.027,19.594,35.94,24.265,15.545,62.709,18.183,82.806-27.7s91.727-33.334,72.447-96.284Z" transform="translate(-117.189 -30.993)" fill="#fff"/>
  <path id="패스_54" data-name="패스 54" d="M597.72,304.821c-7.3-7.489-18.437-5.8-35.312.514-12.691,4.753-24.31,8.913-35.437,19.508a75.53,75.53,0,0,0-16.726,24.011c-3.814,8.6-9.621,18.811-3.565,25.785,8.321,9.579,41.856,10.538,67.94-12.715,28.652-25.548,30.238-49.786,23.1-57.1Z" transform="translate(-329.56 -196.059)" fill="#fff"/>
  <path id="패스_55" data-name="패스 55" d="M143.516,154.988c-7.191,19.174-14.388,39.434-27.554,51.991-13.579,12.956-17.948,8.384-21.332.161s-3.883-29.72,14.75-47.021,40.864-23.076,34.136-5.131Z" transform="translate(-60.673 -94.166)" fill="#fff"/>
  <ellipse id="타원_26" data-name="타원 26" cx="7.787" cy="7.231" rx="7.787" ry="7.231" transform="translate(243.436 61.186)" fill="#492224"/>
  <circle id="타원_27" data-name="타원 27" cx="4.45" cy="4.45" r="4.45" transform="translate(207.837 24.474)" fill="#f8ae9d"/>
  <ellipse id="타원_28" data-name="타원 28" cx="10.568" cy="10.012" rx="10.568" ry="10.012" transform="translate(71.002 160.196)" fill="#e50914"/>
  <ellipse id="타원_29" data-name="타원 29" cx="5.006" cy="5.562" rx="5.006" ry="5.562" transform="translate(57.653 119.035)" fill="#f8ae9d"/>
  <ellipse id="타원_30" data-name="타원 30" cx="5.006" cy="5.562" rx="5.006" ry="5.562" transform="translate(58.765 100.123) rotate(180)" fill="#e1e4e5"/>
  <ellipse id="타원_31" data-name="타원 31" cx="5.006" cy="5.562" rx="5.006" ry="5.562" transform="translate(155.55 176.883)" fill="#e1e4e5"/>
  <ellipse id="타원_32" data-name="타원 32" cx="6.119" cy="6.675" rx="6.119" ry="6.675" transform="translate(230.086 104.573)" fill="#e1e4e5"/>
  <ellipse id="타원_33" data-name="타원 33" cx="4.45" cy="5.006" rx="4.45" ry="5.006" transform="translate(216.736 154.634)" fill="#f8ae9d"/>
  <ellipse id="타원_34" data-name="타원 34" cx="58.405" cy="58.961" rx="58.405" ry="58.961" transform="translate(98.814 45.611)" fill="#e50914"/>
  <ellipse id="타원_35" data-name="타원 35" cx="30.593" cy="30.037" rx="30.593" ry="30.037" transform="translate(126.626 74.536)" fill="#fff"/>
  <path id="패스_56" data-name="패스 56" d="M370.693,262.3a42.871,42.871,0,0,0,15.864.02,4.21,4.21,0,0,0,2.757-6.283l-7.061-12.113a4.288,4.288,0,0,0-7.409-.029l-6.981,12.091A4.265,4.265,0,0,0,370.693,262.3Zm15.778-83.492a41.89,41.89,0,0,0-15.67.093,4.244,4.244,0,0,0-2.762,6.276l6.886,12.013a4.212,4.212,0,0,0,7.311-.023l6.982-12.093A4.2,4.2,0,0,0,386.47,178.813Zm24.236,69.4a42.785,42.785,0,0,0,7.856-13.7,4.2,4.2,0,0,0-4.03-5.52l-13.878.044a4.273,4.273,0,0,0-3.686,6.385l6.92,12.076A4.211,4.211,0,0,0,410.706,248.211Zm-64.334-55.352a42.779,42.779,0,0,0-7.856,13.7,4.2,4.2,0,0,0,4.03,5.52l13.878-.044a4.273,4.273,0,0,0,3.686-6.385l-6.923-12.078A4.209,4.209,0,0,0,346.372,192.858Zm72.39,13.66a42.73,42.73,0,0,0-8-13.688,4.258,4.258,0,0,0-6.859.734l-6.974,12.079a4.282,4.282,0,0,0,3.716,6.4l14.05.035A4.229,4.229,0,0,0,418.763,206.519ZM338.6,234.712a41.848,41.848,0,0,0,7.8,13.573,4.2,4.2,0,0,0,6.779-.781l6.974-12.079a4.21,4.21,0,0,0-3.623-6.349l-13.875.067A4.269,4.269,0,0,0,338.6,234.712Z" transform="translate(-221.178 -116.458)" fill="#fff" fill-rule="evenodd"/>
  <ellipse id="타원_36" data-name="타원 36" cx="18.356" cy="17.243" rx="18.356" ry="17.243" transform="translate(138.863 86.773)" fill="#b81d24"/>
</svg>
