<svg id="history" xmlns="http://www.w3.org/2000/svg" width="311.437" height="207.625" viewBox="0 0 311.437 207.625">
  <path id="패스_32" data-name="패스 32" d="M0,0H311.437V207.625H0Z" fill="none"/>
  <path id="패스_33" data-name="패스 33" d="M219.088,395.4a39.185,39.185,0,0,0,55.239-55.239Z" transform="translate(-143.275 -222.449)" fill="#fff" fill-rule="evenodd"/>
  <path id="패스_34" data-name="패스 34" d="M343.62,258.743h52.973V311.33H343.62ZM319.5,199.2l20.233,20.233-19.96,19.959L299.54,219.156Z" transform="translate(-195.887 -130.267)" fill="#492224"/>
  <ellipse id="타원_10" data-name="타원 10" cx="26.1" cy="26.1" rx="26.1" ry="26.1" transform="translate(148.507 76.277)" fill="#e50914"/>
  <ellipse id="타원_11" data-name="타원 11" cx="16.433" cy="16.433" rx="16.433" ry="16.433" transform="translate(116.027 29.877)" fill="#e50914"/>
  <ellipse id="타원_12" data-name="타원 12" cx="12.76" cy="12.76" rx="12.76" ry="12.76" transform="translate(81.613 57.717)" fill="#f8ae9d"/>
  <ellipse id="타원_13" data-name="타원 13" cx="9.667" cy="9.667" rx="9.667" ry="9.667" transform="translate(81.613 97.157)" fill="#fff"/>
  <path id="패스_35" data-name="패스 35" d="M478.8,55.839l17.884,66.744L429.945,104.7Z" transform="translate(-281.167 -36.516)" fill="#f8ae9d"/>
  <path id="패스_36" data-name="패스 36" d="M131.872,328.756l38.376,10.283-28.093,28.093Z" transform="translate(-86.239 -214.993)" fill="#e50914"/>
  <path id="패스_37" data-name="패스 37" d="M722.733,133.264a3.378,3.378,0,0,1-.555,2.574c-.342.545-.819-.057-1.516-.153-1.078-.151-1.76-1.291-1.993-4.07a11.181,11.181,0,0,1,.056-3.219,2.537,2.537,0,0,1,2.254-.785" transform="translate(-469.941 -83.445)" fill="#492224"/>
  <path id="패스_38" data-name="패스 38" d="M707.723,492.9s.065,4.173-2.51,5.655-6.565,4.237-6.565,4.237l15.179.512-.433-10.44-5.671.037Z" transform="translate(-456.886 -322.309)" fill="#f8ae9d" fill-rule="evenodd"/>
  <path id="패스_39" data-name="패스 39" d="M710.5,368.866l.247,6.769h-3.526l-.242-.872a5.429,5.429,0,0,0-2.094.323c-.811.4-.92.592-.92.592l-11.183.023s-.552-2.188,2.857-3.77A38.979,38.979,0,0,0,702,367.871a2.1,2.1,0,0,1,2.108.182c.675.544,1.208,1.974,2.737,2.019C708.812,370.13,709.942,367.721,710.5,368.866Zm4.359-72.7s-4.143,35.153-4.272,37.6,1.331,6.661,1.3,11.232-.533,20.681-.533,20.681l-9.139.149s-3.841-29.112-3.882-33.478-.393-35.761-.393-35.761Z" transform="translate(-453.027 -193.681)" fill="#492224" fill-rule="evenodd"/>
  <path id="패스_40" data-name="패스 40" d="M779.5,490.526l1.781,10.816-6.565-.033-.208-10.953Z" transform="translate(-506.498 -320.673)" fill="#f8ae9d" fill-rule="evenodd"/>
  <path id="패스_41" data-name="패스 41" d="M749.078,368.278a1.038,1.038,0,0,1,.817.98l.063,1.92c.938,1.044,1.377,4.079,1.415,4.357a.2.2,0,0,1,0,.043c-.1,1.481-9.814,1.455-10.6.05a.23.23,0,0,1-.02-.153c.086-.532.62-3.575,1.665-4.395l.007-1.9a1.038,1.038,0,0,1,.768-1l1.28-.344c.96-1.4,2.268-1.354,3.389.175Zm-4.232-71.78s2.926,23.984,2.886,28.577-.9,6.61.325,9.905,2.27,29.594,2.27,29.594l-9.059.755s-5.788-28.141-6.417-32.043-8.408-37.118-8.408-37.118Z" transform="translate(-475.064 -193.681)" fill="#492224" fill-rule="evenodd"/>
  <path id="패스_42" data-name="패스 42" d="M635.838,149.2s.756-4.215.484-5.068c-.232-.738-2.428-1.8-2.428-1.8s-3.819-6.033-4.655-5.418c-.68.5,1.989,4.945,1.989,4.945s-2.433,2.553-2.4,3.694,3.972,4.714,3.972,4.714Zm39.249.99s-2.515-.59-2.6-4.711-.026-5.528-.026-5.528l-5.963-.1s-.06,4.593-.061,6.254a4.664,4.664,0,0,1-2.688,4.594s.223,3.955,5.243,4.237c3.92.22,6.1-4.746,6.1-4.746Z" transform="translate(-411.229 -89.505)" fill="#f8ae9d" fill-rule="evenodd"/>
  <path id="패스_43" data-name="패스 43" d="M733.53,132.211c2.471-.1,2.068,3.522-.5,3.518,0,0-2.759,5.547-7.09,5.562-2.087.007-2.768-1.852-3.393-3.157a13.021,13.021,0,0,1-1.123-4.451c-.041-1.274-.046-5.46-.046-5.46l12.248-.006Z" transform="translate(-471.752 -83.849)" fill="#f8ae9d" fill-rule="evenodd"/>
  <path id="패스_44" data-name="패스 44" d="M669.725,171.9s-6.424,2-7.971,4.4c-4.986,4.381-11.223,10.4-11.223,10.4s-5.94-14.907-7.881-16.607c-1.329-1.163-3.976.275-4.469,1.753-.634,1.9,3.435,13.032,5.356,18.29h0c.372,1.018.664,1.816.825,2.284,1.172,3.4,4.022,5.348,7.491,3.188,1.4-.871,5.56-3.724,9.11-6.311.055,2.717.149,5.581.238,8.3h0c.216,6.608.4,12.366-.048,13.114-2.24,3.709.738,6.255,10.595,7.19s18.6.169,17.015-4.78a22,22,0,0,1-.162-6.135q1.449-.077,2.895-.191c4.114-.324,7.156-2.092,7.58-6.682.3-3.215-5.827-18.307-8.124-23.27a4.184,4.184,0,0,0-2.309-2.244,1.722,1.722,0,0,0-.743-.508c-1.687-.556-7.735-3.1-7.735-3.1L672.97,175.7l-3.244-3.8Zm19.542,26.566.016.042-.02,0Z" transform="translate(-417.301 -110.957)" fill="#e50914" fill-rule="evenodd"/>
  <path id="패스_45" data-name="패스 45" d="M715.848,259.97a9.834,9.834,0,0,1-3.093-1.146,12.08,12.08,0,0,0-3.618-1.2l.87,1.832s-6.666-.626-6.824.032,1.77,1.373,1.77,1.373a17.739,17.739,0,0,0,1.871,2.806c.871.974,5.2.858,6.715.25a5.566,5.566,0,0,1,2.736-.263Z" transform="translate(-459.847 -168.473)" fill="#f8ae9d" fill-rule="evenodd"/>
  <path id="패스_46" data-name="패스 46" d="M731.429,115.98a2.312,2.312,0,0,1-1.522.671,1.731,1.731,0,0,0-1.42,1.089,2.731,2.731,0,0,1-.878,1.183c-.338.2-.327-.3-.378-.693a.76.76,0,0,0-.021-.108c-.081-.311-.411-.259-.506.048a1.118,1.118,0,0,1-.515.644.185.185,0,0,1-.122.032.243.243,0,0,1-.137-.109,3.593,3.593,0,0,1-.23-.361c-.258-.444-.751-.288-1.039.137a1.26,1.26,0,0,1-.69.6.222.222,0,0,1-.259-.088c-.056-.115.032-.23.017-.347a.6.6,0,0,0-.11-.251.575.575,0,0,0-.945-.073q-.295.313-.614.6c-.09.08-.222.16-.312.08a.291.291,0,0,1-.071-.184c-.051-.339-.1-.678-.151-1.017-.029-.19-.129-.438-.3-.39-.083.024-.132.112-.178.192a8.28,8.28,0,0,1-1.078,1.17c-.156-.657-.476-1.255-.632-1.912-1.01-4.228,3.471-7.627,6.894-7.646a8.769,8.769,0,0,1,2.2.186,8.534,8.534,0,0,1,2.335.928,3.007,3.007,0,0,1,1.566,3" transform="translate(-470.323 -71.441)" fill="#492224"/>
  <path id="패스_47" data-name="패스 47" d="M745.234,120.834a3.4,3.4,0,0,0-.655,2.062,6.244,6.244,0,0,0,.53,3.238c.145.28.251,1.663.473,1.587.071-.024.059-1.1.246-1.675a1.479,1.479,0,0,1,2.217-.672c.956.9.4,2,.078,2.677a4.95,4.95,0,0,0-.542,1.307,7.411,7.411,0,0,0,.277,3.059c.3.4.62-1.52.892-1.9,2.013-2.813,3.944-9.975.506-11.528a4.384,4.384,0,0,0-2.626-.057" transform="translate(-486.912 -77.661)" fill="#492224"/>
  <rect id="사각형_19" data-name="사각형 19" width="6.82" height="22.267" rx="3.41" transform="translate(96.198 128.477) rotate(45)" fill="#e1e4e5"/>
  <rect id="사각형_20" data-name="사각형 20" width="5.329" height="15.358" rx="2.664" transform="translate(76.62 86.331) rotate(45)" fill="#e1e4e5"/>
  <rect id="사각형_21" data-name="사각형 21" width="5.122" height="15.384" rx="2.561" transform="translate(107.185 34.904) rotate(45)" fill="#e1e4e5"/>
  <rect id="사각형_22" data-name="사각형 22" width="5.552" height="15.516" rx="2.776" transform="translate(169.918 29.104) rotate(45)" fill="#e1e4e5"/>
  <path id="패스_48" data-name="패스 48" d="M391.3,510.118c1.9-.449,3.9,1.159,3.9,1.159s-1.07,2.336-2.967,2.783-3.9-1.157-3.9-1.157S389.4,510.567,391.3,510.118Z" transform="translate(-253.951 -333.545)" fill="#fff"/>
  <path id="패스_49" data-name="패스 49" d="M419.616,222.656c-1.681-1.158-4.249-.348-4.249-.348s.159,2.686,1.841,3.843,4.247.349,4.247.349-.159-2.686-1.84-3.844Z" transform="translate(-271.633 -145.2)" fill="#fff"/>
  <path id="패스_50" data-name="패스 50" d="M631.315,328.765c-2.539-2.584-7.286-2.039-7.286-2.039s-.628,4.734,1.913,7.317,7.284,2.041,7.284,2.041S633.854,331.349,631.315,328.765Z" transform="translate(-408.044 -213.634)" fill="#fff"/>
  <ellipse id="타원_14" data-name="타원 14" cx="4.905" cy="4.682" rx="4.905" ry="4.682" transform="translate(64.213 73.57)" fill="#e50914"/>
  <ellipse id="타원_15" data-name="타원 15" cx="4.905" cy="4.905" rx="4.905" ry="4.905" transform="translate(211.146 27.943)" fill="#e50914"/>
  <ellipse id="타원_16" data-name="타원 16" cx="4.459" cy="4.682" rx="4.459" ry="4.682" transform="translate(64.213 153.223)" fill="#e50914"/>
  <ellipse id="타원_18" data-name="타원 18" cx="2.267" cy="2.267" rx="2.267" ry="2.267" transform="translate(141.547 70.477)" fill="#fff"/>
  <ellipse id="타원_19" data-name="타원 19" cx="2.384" cy="2.384" rx="2.384" ry="2.384" transform="translate(174.027 24.464)" fill="#e1e4e5"/>
  <ellipse id="타원_20" data-name="타원 20" cx="1.175" cy="1.175" rx="1.175" ry="1.175" transform="translate(113.237 113.247)" fill="#e1e4e5"/>
  <ellipse id="타원_21" data-name="타원 21" cx="1.793" cy="1.793" rx="1.793" ry="1.793" transform="translate(137.68 177.583)" fill="#fff"/>
  <ellipse id="타원_22" data-name="타원 22" cx="2.371" cy="2.371" rx="2.371" ry="2.371" transform="translate(205.733 101.126) rotate(-90)" fill="#e1e4e5"/>
  <ellipse id="타원_23" data-name="타원 23" cx="2.452" cy="2.452" rx="2.452" ry="2.452" transform="translate(213.853 143.557)" fill="#e1e4e5"/>
  <ellipse id="타원_24" data-name="타원 24" cx="4.236" cy="3.344" rx="4.236" ry="3.344" transform="matrix(0.701, -0.713, 0.713, 0.701, 44.88, 101.651)" fill="#e1e4e5"/>
  <ellipse id="타원_25" data-name="타원 25" cx="2.441" cy="2.441" rx="2.441" ry="2.441" transform="matrix(-0.259, -0.966, 0.966, -0.259, 140.49, 115.896)" fill="#fff"/>
  <path id="패스_51" data-name="패스 51" d="M312.1,204.223h-.031c-.186-2.634-2.145-2.675-2.145-2.675s2.16-.042,2.16-3.086c0,3.044,2.16,3.086,2.16,3.086S312.283,201.588,312.1,204.223Zm103.524-83.33h-.037c-.218-3.152-2.516-3.2-2.516-3.2s2.534-.051,2.534-3.692c0,3.642,2.534,3.692,2.534,3.692S415.84,117.741,415.621,120.892Z" transform="translate(-202.676 -74.551)" fill="#e1e4e5"/>
</svg>
