<svg id="start" xmlns="http://www.w3.org/2000/svg" width="311.014" height="207.343" viewBox="0 0 311.014 207.343">
  <path id="패스_16" data-name="패스 16" d="M445.412,339.823l-.788,1.136Zm.055.1-1.375.144-.008-.072v-.073Zm-.519-.444.821-1.112.01.008.01.007Zm-1.586-5.662,1.375-.144Zm-.4-3.424,1.37-.182Zm-2.978-16.079,1.347-.308Zm-.428-2.31-1.364.224Zm-.482-2.543-1.343.326Zm-.2-1.61-1.379-.095v-.02Zm.113-2.05-1.382-.038v-.01Zm.028-2.144,1.382,0v0ZM439,301.275l1.382-.019Zm3.967-11.785.791,1.134,0,0Zm4.076-2.154-.543-1.271h0Zm4.783-1.776-.436-1.312h0Zm2.4-.765-.411-1.32.023-.007.023-.007Zm2-.548.369,1.332h0Zm20.663-5.724.369,1.332Zm.63-.067-.059,1.381h0Zm2.576.161.1-1.379h.013Zm.59.045.1-1.379Zm1,.078-.111,1.378h0Zm6.264.623-.157,1.373h-.009Zm2.123.269L489.89,281Zm.18.024.182-1.371h0Zm5.859,2.3.841-1.1h0Zm4.708,9.06,1.368-.2Zm.113,6.7,1.377.123v0Zm-.349,2.768-1.365-.217v-.006l1.364.223Zm-.481,2.5-1.349-.3v0Zm-1.443,7.473,1.364.225v0Zm-.17,1.02-1.367-.2,0-.012,0-.012Zm-.108.706-1.366-.212Zm-.128.844,1.368.2v.007Zm-1.576,20.009-1.382.042v-.011Zm0,.007-1.382.042Zm.028.919-1.381.053v-.009Zm1.274,11.667-1.358.258,0-.011,0-.012,1.362-.235Zm.119.655-1.361.241Zm.1.545-1.358.257v0l1.359-.252Zm0,.435-1.013.941-.473-.509.127-.684Zm1.059,7.691,1.042.908Zm-.39.4-.947-1.007Zm-4.05,1.229.053,1.381ZM454.88,358.13l-.053-1.381Zm-8.286-5.114-1.358.256Zm-.218-5.3h1.382v.058l0,.058Zm.371-.356.445-1.309,2.21.752-1.722,1.577Zm-1.082-1.462,1.382-.013v.013Zm-.047-2.711-1.382.047v-.009Zm-.113-2.692-1.379.086v-.02Zm.7-1.806a1.508,1.508,0,0,1,.649,1.239h-2.765a1.256,1.256,0,0,0,.54,1.032Zm-.412-.3c.2.155.348.258.412.3l-1.576,2.271q-.263-.183-.517-.379Zm-1.052-4.708a30.76,30.76,0,0,0,.479,3.494c.2.835.414,1.1.553,1.2l-1.641,2.225a4.6,4.6,0,0,1-1.6-2.786,32.8,32.8,0,0,1-.538-3.844l2.75-.288Zm-.4-3.463c.173,1.3.294,2.456.4,3.463l-2.75.288c-.105-1.008-.223-2.13-.391-3.385Zm-3-16.2a148.232,148.232,0,0,1,3,16.2l-2.74.365a145.513,145.513,0,0,0-2.955-15.954Zm-.411-2.226c.128.782.249,1.514.411,2.226l-2.695.616c-.185-.809-.319-1.627-.444-2.395Zm-.5-2.646c.217.894.365,1.8.5,2.646l-2.728.447c-.141-.863-.274-1.665-.462-2.44l2.686-.652Zm-.161-1.189a4,4,0,0,0,.161,1.189l-2.686.652a6.629,6.629,0,0,1-.233-2.032Zm.116-2.107c-.02.715-.059,1.421-.117,2.127l-2.755-.229c.054-.655.091-1.309.109-1.973Zm.029-1.682q0,.845-.029,1.691l-2.763-.1q.027-.8.027-1.6Zm0-.123v.123h-2.765v-.123Zm0-.378v.378h-2.765v-.378Zm-.023-2.4c.01.75.021,1.55.023,2.4l-2.765.007c0-.832-.013-1.619-.023-2.37Zm3.372-10.63a6.68,6.68,0,0,0-3,4.017,26.443,26.443,0,0,0-.376,6.614l-2.764.037a28.7,28.7,0,0,1,.466-7.35,9.427,9.427,0,0,1,4.1-5.59Zm3.832-2.019a21.551,21.551,0,0,0-3.829,2.017l-1.581-2.268a24.237,24.237,0,0,1,4.323-2.291Zm4.675-1.735c-1.824.605-3.363,1.178-4.679,1.737l-1.079-2.545c1.4-.594,3.013-1.193,4.887-1.816Zm2.372-.757q-1.19.37-2.375.758l-.865-2.626q1.206-.4,2.418-.772Zm1.954-.535-2,.548-.731-2.666,2-.548Zm20.667-5.725-20.663,5.724-.738-2.664,20.663-5.724Zm.2-.018a.643.643,0,0,0-.2.018l-.738-2.664a3.4,3.4,0,0,1,1.062-.116Zm2.543.159c-1.229-.085-2.117-.141-2.539-.159l.118-2.762c.465.02,1.389.078,2.613.163Zm.582.044-.594-.045.217-2.756.585.044Zm1,.077c-.345-.028-.677-.053-1-.077l.207-2.757c.318.024.659.049,1.014.078Zm6.212.618q-3.1-.37-6.21-.618l.223-2.756c1.767.143,3.946.343,6.319.629Zm2.106.267c-.724-.1-1.424-.189-2.1-.266l.313-2.747c.7.08,1.429.177,2.148.272Zm.18.024-.18-.024.364-2.74.179.024Zm5.2,2.032a10.706,10.706,0,0,0-5.2-2.032l.367-2.74a13.464,13.464,0,0,1,6.516,2.578Zm4.18,8.159c-.506-3.529-1.853-6.372-4.181-8.159l1.683-2.193c3.087,2.369,4.665,5.988,5.234,9.96Zm.1,6.379a27.87,27.87,0,0,0-.1-6.379l2.737-.392a30.6,30.6,0,0,1,.122,7.017Zm-.337,2.669c.145-.89.255-1.784.337-2.673l2.753.255c-.087.943-.2,1.9-.361,2.863Zm-.465,2.42q.271-1.2.464-2.415l2.73.434q-.207,1.3-.5,2.592Zm-1.459,7.553q.623-3.794,1.458-7.549l2.7.6q-.818,3.677-1.429,7.4l-2.728-.451Zm-.169,1.018.17-1.02,2.727.454-.17,1.02Zm-.11.721c.037-.238.073-.468.106-.7l2.735.4c-.035.239-.073.479-.109.715Zm-.13.857c.042-.29.087-.578.13-.857l2.732.424c-.043.281-.086.556-.126.83l-2.736-.4Zm-1.59,20.238a127.852,127.852,0,0,1,1.591-20.245l2.734.411a125.176,125.176,0,0,0-1.56,19.773Zm0,.018v-.007l2.764-.084v.007Zm.028.92-.028-.92,2.763-.084.028.917Zm1.293,11.859a89.985,89.985,0,0,1-1.293-11.85l2.763-.105a87.147,87.147,0,0,0,1.255,11.484Zm.12.661c-.039-.221-.076-.43-.116-.638l2.716-.517c.043.228.083.454.122.672Zm.1.556c-.035-.19-.068-.377-.1-.556l2.722-.483c.032.181.063.357.1.534Zm0-.069a.206.206,0,0,0,0,.074l2.716-.515a2.566,2.566,0,0,1,0,.944l-2.718-.5Zm2.372-.689a9.38,9.38,0,0,1,2.441,4.51,5.8,5.8,0,0,1-1.353,5.031l-2.085-1.816a3.038,3.038,0,0,0,.721-2.7,6.648,6.648,0,0,0-1.75-3.142Zm1.088,9.54q-.227.26-.485.5l-1.894-2.014q.155-.146.294-.306Zm-.485.5a7.392,7.392,0,0,1-4.944,1.6l-.106-2.762a4.812,4.812,0,0,0,3.157-.854Zm-4.944,1.6-39.936,1.538-.106-2.763,39.936-1.538Zm-39.936,1.538a11.687,11.687,0,0,1-6.017-1.28,7.057,7.057,0,0,1-3.681-4.959l2.717-.511a4.3,4.3,0,0,0,2.3,3.049,8.94,8.94,0,0,0,4.577.94Zm-9.7-6.239A21.034,21.034,0,0,1,445,347.6l2.755.233a18.276,18.276,0,0,0,.2,4.929Zm-.242-5.557a1.385,1.385,0,0,1,.1-.516,1.4,1.4,0,0,1,.259-.414l.027-.029.034-.036q.2-.194.4-.38l1.867,2.039c-.113.1-.195.181-.246.231l-.051.05h0l.018-.02s.018-.02.036-.041.03-.037.058-.075a1.354,1.354,0,0,0,.162-.293c.014-.038.044-.126.058-.177a2.435,2.435,0,0,0,.042-.339Zm2.054-1.818a.107.107,0,0,0,.025.072.255.255,0,0,0,.12.081l-.89,2.618a2.937,2.937,0,0,1-2.019-2.771ZM447,343.139c.029.851.039,1.775.048,2.745l-2.765.027c-.009-.976-.019-1.866-.046-2.678Zm-.115-2.731c.049.777.087,1.7.115,2.74l-2.764.076q-.033-1.323-.111-2.644Zm-.043-.625c.024.225.035.452.044.645l-2.761.131q-.009-.244-.032-.488Z" transform="translate(-223.423 -168.977)" fill="#e1e4e5"/>
  <path id="패스_1" data-name="패스 1" d="M0,0H311.014V207.343H0Z" fill="rgba(0,0,0,0)"/>
  <path id="패스_2" data-name="패스 2" d="M248,122.132A13.132,13.132,0,0,1,261.132,109h142.03a13.132,13.132,0,0,1,13.132,13.132v99.525a13.132,13.132,0,0,1-13.132,13.132H261.132A13.132,13.132,0,0,1,248,221.656Z" transform="translate(-162.298 -71.333)" fill="#fff" stroke="#e1e4e5" stroke-width="2"/>
  <rect id="사각형_16" data-name="사각형 16" width="51.539" height="4.288" rx="2.144" transform="translate(192 75.68)" fill="#fff" stroke="#e1e4e5" stroke-width="2"/>
  <path id="패스_3" data-name="패스 3" d="M363.946,177.73a2.144,2.144,0,0,1,2.144-2.144h56.7a2.144,2.144,0,0,1,0,4.288h-56.7A2.144,2.144,0,0,1,363.946,177.73Zm-81.762-43.965A2.6,2.6,0,1,1,279.592,131,2.682,2.682,0,0,1,282.184,133.765Z" transform="translate(-181.277 -85.73)" fill="#fff" stroke="#e1e4e5" stroke-width="2"/>
  <circle id="타원_1" data-name="타원 1" cx="2.656" cy="2.656" r="2.656" transform="translate(105.179 45.684)" fill="#fff" stroke="#e1e4e5" stroke-width="2"/>
  <ellipse id="타원_2" data-name="타원 2" cx="3.187" cy="2.656" rx="3.187" ry="2.656" transform="translate(114.741 45.684)" fill="#fff" stroke="#e1e4e5" stroke-width="2"/>
  <path id="패스_4" data-name="패스 4" d="M589.833,302.2a7.814,7.814,0,0,1,7.814-7.814h24.57a7.814,7.814,0,1,1,0,15.628H597.647A7.814,7.814,0,0,1,589.833,302.2Zm0,18.9a2.144,2.144,0,0,1,2.144-2.144h35.911a2.144,2.144,0,0,1,0,4.288H591.977A2.144,2.144,0,0,1,589.833,321.1Zm0,14.175a2.144,2.144,0,0,1,2.144-2.144h35.911a2.144,2.144,0,0,1,0,4.288H591.977A2.144,2.144,0,0,1,589.833,335.278Z" transform="translate(-386.003 -192.656)" fill="#fff" stroke="#e1e4e5" stroke-width="2"/>
  <circle id="타원_3" data-name="타원 3" cx="40.89" cy="40.89" r="40.89" transform="translate(103.657 63.246)" fill="#fff" stroke="#e1e4e5" stroke-width="2"/>
  <path id="패스_5" data-name="패스 5" d="M299.959,274.212a40.8,40.8,0,0,1,2.58-14.327L353,279.976l13.525,26.064a40.891,40.891,0,0,1-66.562-31.828Z" transform="translate(-196.302 -170.076)" fill="#fff" stroke="#e1e4e5" stroke-width="2"/>
  <path id="패스_6" data-name="패스 6" d="M420.843,245.068l27.172-29.8a40.894,40.894,0,0,1-3.972,62.794Z" transform="translate(-275.412 -140.876)" fill="#fff" stroke="#e1e4e5" stroke-width="4"/>
  <circle id="타원_4" data-name="타원 4" cx="29.748" cy="29.748" r="29.748" transform="translate(114.741 74.369)" fill="#fff" stroke="#e1e4e5" stroke-width="2"/>
  <path id="패스_7" data-name="패스 7" d="M149.568,267l39.568,61.857H110Z" transform="translate(-71.987 -174.732)" fill="#fff" fill-rule="evenodd" opacity="0.76"/>
  <path id="패스_8" data-name="패스 8" d="M453.59,143.852,467,164.714H440.179Z" transform="translate(-288.066 -94.141)" fill="#fff" fill-rule="evenodd" opacity="0.76"/>
  <path id="패스_9" data-name="패스 9" d="M133.823,310.725A3.916,3.916,0,1,1,129.916,307,3.823,3.823,0,0,1,133.823,310.725Z" transform="translate(-82.458 -200.91)" fill="none" stroke="#e1e4e5" stroke-width="5.225"/>
  <path id="패스_10" data-name="패스 10" d="M142.512,212.148c-3.317,2.9-9.023,1.8-9.023,1.8s-.324-5.8,3-8.695,9.02-1.8,9.02-1.8S145.829,209.249,142.512,212.148Z" transform="translate(-87.354 -133.011)" fill="#fff"/>
  <circle id="타원_5" data-name="타원 5" cx="2.031" cy="2.031" r="2.031" transform="matrix(-0.259, 0.966, -0.966, -0.259, 114.521, 58.763)" fill="#e1e4e5"/>
  <circle id="타원_6" data-name="타원 6" cx="2.031" cy="2.031" r="2.031" transform="matrix(-0.259, 0.966, -0.966, -0.259, 106.228, 74.659)" fill="#e1e4e5"/>
  <circle id="타원_7" data-name="타원 7" cx="2.031" cy="2.031" r="2.031" transform="matrix(-0.259, 0.966, -0.966, -0.259, 153.225, 46.668)" fill="#e1e4e5"/>
  <circle id="타원_8" data-name="타원 8" cx="1.335" cy="1.335" r="1.335" transform="matrix(-0.259, 0.966, -0.966, -0.259, 214.068, 53.91)" fill="#e1e4e5"/>
  <circle id="타원_9" data-name="타원 9" cx="2.031" cy="2.031" r="2.031" transform="matrix(-0.259, 0.966, -0.966, -0.259, 273.484, 129.951)" fill="#e1e4e5"/>
  <rect id="사각형_17" data-name="사각형 17" width="7.805" height="0.909" rx="0.455" transform="translate(219.439 159.643) rotate(-45)" fill="#e1e4e5"/>
  <rect id="사각형_18" data-name="사각형 18" width="2.898" height="0.909" rx="0.455" transform="translate(222.432 159.665) rotate(-45)" fill="#e1e4e5"/>
  <path id="패스_11" data-name="패스 11" d="M751.766,341.862c-.047-.067,3.354-2.49,7.6-5.4s7.727-5.225,7.773-5.157-3.356,2.485-7.6,5.4S751.813,341.93,751.766,341.862Z" transform="translate(-491.977 -216.813)" fill="#fff"/>
  <path id="패스_12" data-name="패스 12" d="M758.328,250h.049c.288,3.918,3.329,3.978,3.329,3.978s-3.353.063-3.353,4.59c0-4.527-3.353-4.59-3.353-4.59S758.039,253.918,758.328,250Z" transform="translate(-494.094 -163.607)" fill="#e1e4e5"/>
  <path id="패스_13" data-name="패스 13" d="M364.306,317.156,352.4,360.691l4.249-4.89a21.69,21.69,0,0,1-5.411,1.934,39.118,39.118,0,0,1-6.507.837c-2.3.121-4.685.1-7.139,0s-4.946-.288-7.484-.5H330.1a6.8,6.8,0,0,0-1.655,13.5c2.622.419,5.281.809,8.014,1.125s5.531.548,8.432.613a54.383,54.383,0,0,0,9.008-.493,37.175,37.175,0,0,0,9.454-2.612,7.4,7.4,0,0,0,4.091-4.444l.149-.456,14.289-42.82a9.187,9.187,0,0,0-17.431-5.81c-.047.158-.1.335-.14.483Z" transform="translate(-211.189 -203.126)" fill="#f8ae9d"/>
  <path id="패스_14" data-name="패스 14" d="M519.588,498.608c.158,1.227.7,2.166,1.208,2.092s.79-1.116.632-2.334-.7-2.166-1.208-2.092S519.43,497.391,519.588,498.608Z" transform="translate(-340.004 -324.774)" fill="#b55e63"/>
  <path id="패스_15" data-name="패스 15" d="M448.085,342.544a.126.126,0,0,0-.055-.1c-.08-.055-.243-.171-.465-.341-1.076-.794-1.269-2.631-1.586-5.661-.106-1.008-.225-2.147-.4-3.424a146.946,146.946,0,0,0-2.978-16.079c-.174-.76-.3-1.535-.428-2.31-.14-.854-.28-1.708-.482-2.543a5.3,5.3,0,0,1-.2-1.61c.057-.68.094-1.361.113-2.05q.029-.822.028-1.643v-.5q0-1.193-.023-2.385c-.078-5.737-.121-8.953,3.967-11.785a22.928,22.928,0,0,1,4.076-2.154c1.358-.576,2.934-1.162,4.783-1.776q1.195-.392,2.4-.766l2-.548,20.663-5.724a2.018,2.018,0,0,1,.63-.067c.443.019,1.349.076,2.576.161l.59.045c.318.024.654.049,1,.078,1.755.142,3.915.34,6.264.623q1.153.135,2.3.293a12.078,12.078,0,0,1,5.858,2.3c2.708,2.078,4.17,5.309,4.708,9.06a29.246,29.246,0,0,1,.113,6.7c-.085.916-.2,1.842-.349,2.768q-.2,1.259-.481,2.5-.826,3.715-1.443,7.473l-.17,1.02q-.052.35-.108.706c-.043.28-.087.561-.128.844a126.545,126.545,0,0,0-1.576,20.009v.007l.028.919A88.562,88.562,0,0,0,500.6,348.25c.041.218.08.435.119.655.032.18.064.362.1.545a1.179,1.179,0,0,1,0,.435c2.132,2.295,3.1,5.343,1.058,7.691a5.555,5.555,0,0,1-.39.405,6.077,6.077,0,0,1-4.05,1.229L457.5,360.748c-3.776.145-7.588-1.4-8.286-5.114a19.662,19.662,0,0,1-.218-5.3s.125-.13.371-.356a1.554,1.554,0,0,1-1.082-1.462c-.009-.973-.019-1.88-.047-2.711q-.034-1.347-.113-2.692-.011-.284-.038-.567Z" transform="translate(-288.925 -183.94)" fill="#fff" fill-rule="evenodd"/>
  <path id="패스_17" data-name="패스 17" d="M467.422,255.55s-1.85,7-8.841,8.943c-8.887,2.464-10.226-.521-10.226-.521a17.582,17.582,0,0,0,.242-3.839c-.019-.5-.065-1.013-.121-1.534a40.714,40.714,0,0,0-.874-4.778c-.093-.418-.2-.855-.316-1.3l-.009-.056c6.08-2.287,10.849-5.718,13.768-10.793l.864-.679.586-.465.167.353.028,1.181C462.811,247.611,463.75,250.893,467.422,255.55Zm2.478,11.075-13.353,49.237,4.761-5.53a24.3,24.3,0,0,1-6.062,2.186,43.074,43.074,0,0,1-7.291.938c-2.575.137-5.258.11-8,0s-5.547-.319-8.393-.565h-.018a7.7,7.7,0,0,0-1.852,15.268c2.936.473,5.927.92,8.99,1.275s6.207.629,9.459.7a59.992,59.992,0,0,0,10.1-.565,41.8,41.8,0,0,0,10.607-2.952,8.366,8.366,0,0,0,4.59-5.019l.171-.51,16.01-48.436A10.41,10.41,0,0,0,483.1,259.51a10.29,10.29,0,0,0-13.037,6.568C470.009,266.251,469.945,266.461,469.9,266.625Z" transform="translate(-276.989 -157.408)" fill="#f8ae9d"/>
  <path id="패스_18" data-name="패스 18" d="M103.085,503.263v-2.577c0-1.479,1.485-2.678,3.311-2.685H336.491c1.835,0,3.311,1.206,3.311,2.685v2.577c0,1.486-1.486,2.685-3.311,2.685h-10.3a2.628,2.628,0,0,0-2.628,2.628c0,.459-.753.828-1.683.828H114.78c-.92,0-1.673-.369-1.673-.828a2.628,2.628,0,0,0-2.628-2.628H106.4C104.561,505.948,103.085,504.749,103.085,503.263Z" transform="translate(-67.462 -325.905)" fill="#fff" fill-rule="evenodd"/>
  <path id="패스_19" data-name="패스 19" d="M105.087,496.691l0-.691h0Zm-2.62,2.685v2.577h-1.382v-2.577Zm2.622-1.994c-1.59.006-2.622,1.027-2.622,1.994h-1.382c0-1.991,1.939-3.369,4-3.377Zm230.092,0H105.087V496H335.182v1.382Zm2.62,1.994a2.369,2.369,0,0,0-2.62-1.994V496c2.076,0,4,1.389,4,3.377Zm0,2.577v-2.577h1.382v2.577Zm-2.62,1.994a2.37,2.37,0,0,0,2.62-1.994h1.382c0,2-1.938,3.377-4,3.377Zm-10.3,0h10.3v1.382h-10.3Zm-4.311,3.456a2.093,2.093,0,0,0,.885-.171c.234-.115.106-.144.106.035h1.382a1.4,1.4,0,0,1-.879,1.206,3.451,3.451,0,0,1-1.495.313Zm-207.1,0h207.1v1.382h-207.1Zm-.982-.136c0-.179-.128-.149.106-.034a2.061,2.061,0,0,0,.876.171v1.382a3.428,3.428,0,0,1-1.488-.313,1.4,1.4,0,0,1-.877-1.206Zm-7.4-3.319h4.082v1.382h-4.082Zm-2.62-1.994c0,.977,1.024,1.994,2.62,1.994v1.382c-2.075,0-4-1.38-4-3.377Zm8.639,5.313a1.937,1.937,0,0,0-1.937-1.937v-1.382a3.319,3.319,0,0,1,3.32,3.319Zm213.772-1.937a1.937,1.937,0,0,0-1.937,1.937H321.56a3.319,3.319,0,0,1,3.319-3.319Z" transform="translate(-66.153 -324.597)" fill="#e1e4e5"/>
  <path id="패스_20" data-name="패스 20" d="M183.52,306.188,194.3,351.8l.288,1.2.725,3.068a2.943,2.943,0,0,0,2.863,2.268h72.652a2.953,2.953,0,0,0,2.872-3.626l-11.8-49.875a2.943,2.943,0,0,0-2.863-2.268H186.393A2.956,2.956,0,0,0,183.52,306.188Z" transform="translate(-120.048 -198.006)" fill="#e50914"/>
  <path id="패스_21" data-name="패스 21" d="M285.75,378.161a6.5,6.5,0,0,0,6.312,5.68,4.992,4.992,0,0,0,5.057-5.68,6.5,6.5,0,0,0-6.312-5.68A4.988,4.988,0,0,0,285.75,378.161Z" transform="translate(-186.981 -243.762)" fill="#fff"/>
  <path id="패스_22" data-name="패스 22" d="M341.633,302.587l12.559,55.769h2.12a2.947,2.947,0,0,0,2.863-3.626l-11.8-49.875a2.943,2.943,0,0,0-2.863-2.268h-2.882ZM320.641,357.9l1.992,11.149H316.05L314.057,357.9Z" transform="translate(-205.528 -198.022)" fill="#492224"/>
  <path id="패스_23" data-name="패스 23" d="M313.409,485.8l-1.488-2.092a2.846,2.846,0,0,0-2.315-1.19h-19.96a2.816,2.816,0,0,0-2.51,1.525l-1,1.924a1.346,1.346,0,0,0,1.2,1.971H312.3A1.358,1.358,0,0,0,313.409,485.8Z" transform="translate(-187.151 -315.773)" fill="#492224"/>
  <path id="패스_24" data-name="패스 24" d="M468.853,182.585V190.7l5.934-4.8s1.824-7.776,3.307-13.551c.93-3.621,3.2-15.878-5.927-15.3-7.474-13.233-29.241-5.043-29.414,11.124,4.166,23.486.639,30.945.639,30.945C455.7,199.826,461.951,194.108,468.853,182.585Z" transform="translate(-289.75 -98.458)" fill="#492224" fill-rule="evenodd"/>
  <path id="패스_25" data-name="패스 25" d="M472.121,179.275l1.014,7.077-5.774-3.443s-2.562-6.552-4.577-11.4c-1.264-3.042-4.771-13.446,3.256-14.085,4.864-12.473,24.868-8.051,27.04,6.024-.7,21,3.309,27.064,3.309,27.064-10.645,2.157-16.81-2.049-24.268-11.234Z" transform="translate(-301.644 -98.228)" fill="#492224" fill-rule="evenodd"/>
  <path id="패스_26" data-name="패스 26" d="M465.822,213.658s20.118-1.96,18.7-14.47.228-21.189-12.675-20.466-14.86,5.777-15.4,10.068,4.1,25.056,9.372,24.869Z" transform="translate(-298.685 -116.933)" fill="#f8ae9d"/>
  <path id="패스_27" data-name="패스 27" d="M478.156,188.792c-2.549.413-2.24,2.071-2.933,1.927-3.52-.735-17.768.235-19.6-7.463-2.283,4.809-2.841,5.992-7.867,7.282V176.445l31.792-3S479.052,188.647,478.156,188.792Z" transform="translate(-293.022 -113.51)" fill="#492224" fill-rule="evenodd"/>
  <path id="패스_28" data-name="패스 28" d="M158.786,113l12.786,19.7H146Z" transform="translate(-95.547 -73.95)" fill="#fff" fill-rule="evenodd" opacity="0.76"/>
  <path id="패스_29" data-name="패스 29" d="M665.639,142l8.639,13.477H657Z" transform="translate(-429.959 -92.929)" fill="#fff" fill-rule="evenodd" opacity="0.76"/>
  <path id="패스_30" data-name="패스 30" d="M722.251,453.268h5.683a2.678,2.678,0,0,1,2.678,2.679v2.722a5.4,5.4,0,0,1-5.4,5.4h-2.961a1.543,1.543,0,1,1,0-3.086h2.961a2.314,2.314,0,0,0,2.314-2.314v-2.315h-5.275a1.543,1.543,0,1,1,0-3.086Z" transform="translate(-471.652 -296.631)" fill="#fff" stroke="#e1e4e5" stroke-linecap="round" stroke-linejoin="round" stroke-width="2"/>
  <path id="패스_31" data-name="패스 31" d="M666.271,449A2.271,2.271,0,0,0,664,451.271v5.677a7.951,7.951,0,0,0,6.5,7.817.664.664,0,0,1,.554.641.626.626,0,0,0,.626.626h8.668a.647.647,0,0,0,.648-.647.688.688,0,0,1,.556-.661,7.951,7.951,0,0,0,6.293-7.776v-5.677A2.271,2.271,0,0,0,685.574,449Z" transform="translate(-434.54 -293.838)" fill="#fff" stroke="#e1e4e5" stroke-linecap="round" stroke-linejoin="round" stroke-width="2" fill-rule="evenodd"/>
</svg>
